<svg width="32" height="32" viewBox="0 0 32 32" fill="none" xmlns="http://www.w3.org/2000/svg">
<g clip-path="url(#clip0_2565_13536)">
<path d="M25.4002 7.08484C31.1775 13.3092 31.1662 22.6959 25.3958 28.0519C19.6255 33.4079 10.2639 32.721 4.48654 26.4967C-1.2908 20.2723 -1.27944 10.8856 4.49092 5.52961C10.2613 0.173632 19.6229 0.860517 25.4002 7.08484Z" fill="#D9D9D9" stroke="#1D1D1D" stroke-width="0.191973"/>
<path d="M27.4393 5.39734C33.2166 11.6217 33.2052 21.0084 27.4349 26.3644C21.6645 31.7204 12.3029 31.0335 6.5256 24.8092C0.748261 18.5848 0.759624 9.19809 6.52999 3.84211C12.3003 -1.51387 21.6619 -0.826983 27.4393 5.39734Z" fill="white" stroke="#1D1D1D" stroke-width="0.191973"/>
<path d="M25.6489 7.05951C30.4184 12.198 30.4873 19.8666 25.8299 24.1896C21.1725 28.5125 13.5302 27.8734 8.76071 22.7349C3.99125 17.5964 3.92234 9.9278 8.57974 5.60485C13.2371 1.2819 20.8794 1.92104 25.6489 7.05951Z" fill="#00C453" stroke="#1D1D1D" stroke-width="0.191973"/>
<g clip-path="url(#clip1_2565_13536)">
<path d="M21.3266 12.9479C21.526 13.3236 22.006 13.5178 22.4106 13.3864C22.8151 13.2549 22.9782 12.8518 22.7788 12.476C22.5795 12.1003 22.0994 11.9061 21.6949 12.0375C21.2903 12.169 21.1272 12.5721 21.3266 12.9479Z" fill="white"/>
<path d="M21.7994 10.0601C21.2319 8.99068 19.8383 8.4269 18.6869 8.80101L10.6996 11.3962C9.55858 11.767 9.08509 12.9374 9.65253 14.0069L12.1319 18.6797C12.6533 19.6624 13.8711 20.2156 14.9541 20.0105L15.5062 21.0511L16.8886 19.3933L23.2162 17.3373C24.3676 16.9632 24.8411 15.7928 24.2736 14.7233L23.742 13.7213L22.8291 14.0179C22.0304 14.2774 21.0548 13.8828 20.6612 13.1409C20.2676 12.399 20.599 11.5797 21.3978 11.3202L22.3106 11.0236L21.7994 10.0601Z" fill="white"/>
</g>
</g>
<defs>
<clipPath id="clip0_2565_13536">
<rect width="32" height="32" fill="white"/>
</clipPath>
<clipPath id="clip1_2565_13536">
<rect width="12.772" height="10.8196" fill="white" transform="matrix(0.951057 -0.309017 0.468701 0.883357 8.625 12.0703)"/>
</clipPath>
</defs>
</svg>
